<svg width="450" height="479" viewBox="0 0 450 479" fill="none" xmlns="http://www.w3.org/2000/svg">
<g filter="url(#filter0_d_71_2)">
<path fill-rule="evenodd" clip-rule="evenodd" d="M242.462 260.933C257.066 252.252 291.69 241.41 313.354 267.488C335.017 293.566 349.997 364.119 354.779 396.135L242.462 260.933ZM242.462 260.934C231.251 273.699 214.244 305.748 235.908 331.825C257.572 357.903 324.182 385.565 354.78 396.136L242.462 260.934Z" fill="url(#paint0_linear_71_2)"/>
</g>
<path fill-rule="evenodd" clip-rule="evenodd" d="M244.753 263.468C239.78 269.129 232.238 283.343 241.846 294.909C251.454 306.474 280.996 318.742 294.566 323.431L244.753 263.468ZM244.753 263.468C251.23 259.618 266.585 254.809 276.193 266.375C285.801 277.941 292.445 309.231 294.566 323.431L244.753 263.468Z" fill="url(#paint1_linear_71_2)"/>
<path d="M170.025 338.858C133.676 295.103 132.275 243.269 136.118 222.822L189.187 286.704C181.486 293.101 182.06 324.423 182.016 329.266C181.992 331.908 183.437 336.22 179.237 339.71C175.036 343.199 171.345 340.596 170.025 338.858Z" fill="url(#paint2_linear_71_2)"/>
<path fill-rule="evenodd" clip-rule="evenodd" d="M82.4015 67.7948C108.859 69.3704 171.295 84.0218 209.525 130.041L280.405 215.363C282.792 217.94 285.86 224.512 279.034 230.182L242.509 260.525L242.509 260.525L205.974 290.876C199.148 296.547 193.251 292.326 191.155 289.506L120.275 204.185C82.0452 158.165 79.0896 94.1016 82.3917 67.8034L82.3836 67.7937C82.3867 67.7939 82.3898 67.7941 82.3928 67.7943C82.3932 67.7914 82.3935 67.7885 82.3939 67.7857L82.4015 67.7948Z" fill="url(#paint3_linear_71_2)"/>
<path d="M333.007 203.463C296.659 159.708 245.96 148.827 225.155 148.855L278.224 212.737C285.925 206.34 316.61 212.647 321.379 213.492C323.981 213.953 327.955 216.164 332.156 212.674C336.356 209.185 334.474 205.079 333.007 203.463Z" fill="url(#paint4_linear_71_2)"/>
<circle cx="152.574" cy="151.839" r="31.5702" transform="rotate(-39.7176 152.574 151.839)" fill="url(#paint5_linear_71_2)"/>
<circle cx="152.573" cy="151.839" r="23.0377" transform="rotate(-39.7176 152.573 151.839)" fill="url(#paint6_linear_71_2)"/>
<rect x="179.34" y="198.748" width="18.2026" height="110.353" rx="9.10131" transform="rotate(-39.7176 179.34 198.748)" fill="url(#paint7_linear_71_2)"/>
<mask id="mask0_71_2" style="mask-type:alpha" maskUnits="userSpaceOnUse" x="81" y="67" width="203" height="227">
<path fill-rule="evenodd" clip-rule="evenodd" d="M82.4015 67.7948C108.859 69.3704 171.295 84.0218 209.525 130.041L280.405 215.363C282.792 217.94 285.86 224.512 279.034 230.182L242.509 260.525L242.509 260.525L205.974 290.876C199.148 296.547 193.251 292.326 191.155 289.506L120.275 204.185C82.0452 158.165 79.0896 94.1016 82.3917 67.8034L82.3836 67.7937C82.3867 67.7939 82.3898 67.7941 82.3928 67.7943C82.3932 67.7914 82.3935 67.7885 82.3939 67.7857L82.4015 67.7948Z" fill="#FF0000"/>
</mask>
<g mask="url(#mask0_71_2)">
<circle cx="79.1123" cy="63.856" r="55.7456" transform="rotate(-39.7176 79.1123 63.856)" fill="url(#paint8_linear_71_2)"/>
</g>
<defs>
<filter id="filter0_d_71_2" x="0.465942" y="13.1274" width="449.314" height="465.009" filterUnits="userSpaceOnUse" color-interpolation-filters="sRGB">
<feFlood flood-opacity="0" result="BackgroundImageFix"/>
<feColorMatrix in="SourceAlpha" type="matrix" values="0 0 0 0 0 0 0 0 0 0 0 0 0 0 0 0 0 0 127 0" result="hardAlpha"/>
<feOffset dx="-65" dy="-78"/>
<feGaussianBlur stdDeviation="80"/>
<feComposite in2="hardAlpha" operator="out"/>
<feColorMatrix type="matrix" values="0 0 0 0 0.933333 0 0 0 0 0.670588 0 0 0 0 0.384314 0 0 0 1 0"/>
<feBlend mode="normal" in2="BackgroundImageFix" result="effect1_dropShadow_71_2"/>
<feBlend mode="normal" in="SourceGraphic" in2="effect1_dropShadow_71_2" result="shape"/>
</filter>
<linearGradient id="paint0_linear_71_2" x1="275.073" y1="249.003" x2="332.464" y2="414.674" gradientUnits="userSpaceOnUse">
<stop stop-color="#F4BB79"/>
<stop offset="1" stop-color="#EAA356"/>
</linearGradient>
<linearGradient id="paint1_linear_71_2" x1="258.924" y1="259.83" x2="284.68" y2="324.216" gradientUnits="userSpaceOnUse">
<stop stop-color="#FFE4C0"/>
<stop offset="1" stop-color="#FBCE8D"/>
</linearGradient>
<linearGradient id="paint2_linear_71_2" x1="117.629" y1="238.181" x2="192.689" y2="328.534" gradientUnits="userSpaceOnUse">
<stop stop-color="#7FCFFC"/>
<stop offset="1" stop-color="#5AA5DC"/>
</linearGradient>
<linearGradient id="paint3_linear_71_2" x1="82.3886" y1="67.7896" x2="242.504" y2="260.53" gradientUnits="userSpaceOnUse">
<stop stop-color="#F1F2F4"/>
<stop offset="1" stop-color="#D5D9E1"/>
</linearGradient>
<linearGradient id="paint4_linear_71_2" x1="243.643" y1="133.496" x2="318.703" y2="223.85" gradientUnits="userSpaceOnUse">
<stop stop-color="#7FCFFC"/>
<stop offset="1" stop-color="#5AA5DC"/>
</linearGradient>
<linearGradient id="paint5_linear_71_2" x1="130.674" y1="131.361" x2="176.749" y2="171.464" gradientUnits="userSpaceOnUse">
<stop stop-color="#C4CAD8"/>
<stop offset="1" stop-color="#969CB0"/>
</linearGradient>
<linearGradient id="paint6_linear_71_2" x1="172.483" y1="146.151" x2="129.536" y2="156.674" gradientUnits="userSpaceOnUse">
<stop stop-color="#B6DBEB"/>
<stop offset="1" stop-color="#A5D8E4"/>
</linearGradient>
<linearGradient id="paint7_linear_71_2" x1="188.441" y1="198.748" x2="188.441" y2="309.101" gradientUnits="userSpaceOnUse">
<stop stop-color="#7FCFFC"/>
<stop offset="1" stop-color="#5AA5DC"/>
</linearGradient>
<linearGradient id="paint8_linear_71_2" x1="79.1123" y1="8.1104" x2="79.1123" y2="119.602" gradientUnits="userSpaceOnUse">
<stop stop-color="#7FCFFC"/>
<stop offset="1" stop-color="#5AA5DC"/>
</linearGradient>
</defs>
</svg>
