<svg width="1351" height="1234" viewBox="0 0 1351 1234" fill="none" xmlns="http://www.w3.org/2000/svg">
<g filter="url(#filter0_f_5_18)">
<circle cx="955.5" cy="278.5" r="455.5" fill="#20254B"/>
</g>
<g filter="url(#filter1_d_5_18)">
<circle cx="955.5" cy="278.5" r="204.5" fill="#FDFDFD"/>
</g>
<g filter="url(#filter2_d_5_18)">
<circle cx="955.5" cy="278.5" r="204.5" fill="#FDFDFD"/>
</g>
<circle cx="1011.5" cy="147.5" r="45.5" fill="#E1E1E1"/>
<circle cx="937.5" cy="120.5" r="18.5" fill="#E1E1E1"/>
<circle cx="931.5" cy="179.5" r="24.5" fill="#E1E1E1"/>
<circle cx="975" cy="205" r="12" fill="#E1E1E1"/>
<circle cx="1111" cy="377" r="12" fill="#E1E1E1"/>
<circle cx="931.5" cy="405.5" r="54.5" fill="#E1E1E1"/>
<circle cx="846" cy="408" r="19" fill="#E1E1E1"/>
<circle cx="1130" cy="270" r="19" fill="#E1E1E1"/>
<circle cx="861" cy="343" r="34" fill="#E1E1E1"/>
<circle cx="1105" cy="327" r="34" fill="#E1E1E1"/>
<path fill-rule="evenodd" clip-rule="evenodd" d="M860.5 408C973.442 408 1065 316.442 1065 203.5C1065 160.474 1051.71 120.552 1029.02 87.6127C1105.64 117.141 1160 191.472 1160 278.5C1160 391.442 1068.44 483 955.5 483C885.583 483 823.862 447.913 786.982 394.387C809.797 403.18 834.586 408 860.5 408Z" fill="black" fill-opacity="0.05"/>
<defs>
<filter id="filter0_f_5_18" x="0" y="-677" width="1911" height="1911" filterUnits="userSpaceOnUse" color-interpolation-filters="sRGB">
<feFlood flood-opacity="0" result="BackgroundImageFix"/>
<feBlend mode="normal" in="SourceGraphic" in2="BackgroundImageFix" result="shape"/>
<feGaussianBlur stdDeviation="250" result="effect1_foregroundBlur_5_18"/>
</filter>
<filter id="filter1_d_5_18" x="562" y="-111" width="787" height="787" filterUnits="userSpaceOnUse" color-interpolation-filters="sRGB">
<feFlood flood-opacity="0" result="BackgroundImageFix"/>
<feColorMatrix in="SourceAlpha" type="matrix" values="0 0 0 0 0 0 0 0 0 0 0 0 0 0 0 0 0 0 127 0" result="hardAlpha"/>
<feMorphology radius="77" operator="dilate" in="SourceAlpha" result="effect1_dropShadow_5_18"/>
<feOffset dy="4"/>
<feGaussianBlur stdDeviation="56"/>
<feComposite in2="hardAlpha" operator="out"/>
<feColorMatrix type="matrix" values="0 0 0 0 1 0 0 0 0 1 0 0 0 0 1 0 0 0 0.1 0"/>
<feBlend mode="normal" in2="BackgroundImageFix" result="effect1_dropShadow_5_18"/>
<feBlend mode="normal" in="SourceGraphic" in2="effect1_dropShadow_5_18" result="shape"/>
</filter>
<filter id="filter2_d_5_18" x="562" y="-111" width="787" height="787" filterUnits="userSpaceOnUse" color-interpolation-filters="sRGB">
<feFlood flood-opacity="0" result="BackgroundImageFix"/>
<feColorMatrix in="SourceAlpha" type="matrix" values="0 0 0 0 0 0 0 0 0 0 0 0 0 0 0 0 0 0 127 0" result="hardAlpha"/>
<feMorphology radius="77" operator="dilate" in="SourceAlpha" result="effect1_dropShadow_5_18"/>
<feOffset dy="4"/>
<feGaussianBlur stdDeviation="56"/>
<feComposite in2="hardAlpha" operator="out"/>
<feColorMatrix type="matrix" values="0 0 0 0 1 0 0 0 0 1 0 0 0 0 1 0 0 0 0.1 0"/>
<feBlend mode="normal" in2="BackgroundImageFix" result="effect1_dropShadow_5_18"/>
<feBlend mode="normal" in="SourceGraphic" in2="effect1_dropShadow_5_18" result="shape"/>
</filter>
</defs>
</svg>
